<?xml version="1.0" standalone="no"?>
<!DOCTYPE svg PUBLIC "-//W3C//DTD SVG 20010904//EN"
 "http://www.w3.org/TR/2001/REC-SVG-20010904/DTD/svg10.dtd">
<svg version="1.0" xmlns="http://www.w3.org/2000/svg"
 width="1080.000000pt" height="1080.000000pt" viewBox="0 0 1080.000000 1080.000000"
 preserveAspectRatio="xMidYMid meet">

<g transform="translate(0.000000,1080.000000) scale(0.100000,-0.100000)"
fill="#000000" stroke="none">
<path d="M4507 10780 c-14 -11 -30 -20 -36 -20 -5 0 -14 -6 -18 -13 -11 -19
-185 -102 -263 -127 -36 -11 -74 -24 -85 -29 -42 -19 -165 -44 -285 -57 -273
-30 -482 -11 -691 62 -77 27 -169 40 -169 25 0 -5 -17 -28 -37 -51 -21 -23
-64 -78 -95 -123 -32 -45 -64 -91 -73 -102 -44 -59 -52 -71 -57 -85 -5 -13 25
-76 42 -90 12 -9 80 -120 80 -130 0 -6 4 -10 9 -10 6 0 22 -26 36 -57 14 -32
32 -69 40 -83 26 -45 75 -149 75 -160 0 -6 9 -30 20 -53 30 -62 68 -245 79
-386 12 -140 -1 -368 -26 -466 -8 -33 -18 -79 -22 -102 -4 -23 -12 -48 -18
-55 -5 -7 -18 -40 -28 -73 -18 -60 -127 -282 -165 -335 -11 -15 -20 -31 -20
-34 0 -7 -51 -88 -61 -96 -3 -3 -14 -20 -24 -37 -11 -18 -23 -33 -27 -33 -4 0
-8 -7 -8 -15 0 -8 -4 -15 -9 -15 -4 0 -21 -19 -36 -42 -27 -40 -121 -154 -169
-203 -29 -31 -56 -64 -56 -70 0 -3 70 -75 155 -161 l155 -155 0 -222 c0 -220
9 -320 46 -497 38 -186 55 -251 71 -275 7 -11 13 -27 13 -36 0 -37 99 -250
181 -391 21 -36 39 -69 39 -73 0 -19 153 -206 247 -300 174 -176 382 -312 628
-415 39 -16 89 -38 112 -49 23 -12 50 -21 60 -21 10 0 28 -7 39 -15 12 -8 24
-12 27 -8 4 3 13 1 20 -5 30 -25 209 -73 387 -103 71 -12 82 -14 100 -21 27
-11 153 -27 256 -34 95 -6 102 -8 135 -38 19 -18 54 -46 79 -63 25 -17 73 -58
106 -90 34 -32 74 -67 89 -78 59 -42 60 -44 10 -77 -49 -33 -94 -91 -115 -149
l-13 -36 -251 -17 c-138 -9 -251 -18 -252 -19 -2 -2 146 -2363 200 -3185 14
-206 26 -376 29 -378 3 -3 819 46 824 50 0 0 -17 306 -40 678 -22 373 -39 680
-36 683 3 3 163 16 356 29 193 13 356 26 362 30 6 4 144 158 307 343 l296 335
-26 432 c-14 237 -26 441 -26 453 0 16 -41 59 -141 150 -136 122 -142 130
-184 218 -72 151 -188 272 -334 348 -127 67 -237 89 -508 103 -73 4 -133 11
-133 15 0 5 3 9 8 9 10 0 80 59 115 97 16 17 47 44 69 59 22 16 56 42 75 60
32 30 42 33 122 38 104 7 250 25 271 33 8 3 20 7 25 8 6 0 21 4 35 7 14 4 63
14 110 23 47 10 103 21 125 26 48 9 153 45 169 57 6 5 31 14 56 22 25 7 68 23
95 36 122 54 145 64 154 64 5 0 16 6 23 13 7 7 46 30 86 50 40 20 80 44 88 52
9 8 22 15 29 15 8 0 32 12 53 28 22 15 61 42 88 61 51 36 84 68 84 82 0 4 10
11 23 14 28 9 67 44 67 62 0 7 6 13 14 13 15 0 53 36 116 110 25 29 57 66 73
82 15 16 27 32 27 34 0 3 22 38 50 78 27 40 57 89 65 109 8 19 18 37 23 39 4
1 20 29 35 60 15 32 37 75 50 95 13 21 36 76 52 123 15 47 33 96 40 110 19 41
33 95 71 280 35 168 37 186 41 430 l5 255 106 109 c59 59 126 126 150 149 40
38 51 61 35 69 -5 2 -35 35 -68 73 -33 39 -64 73 -68 76 -16 12 -127 169 -256
364 -15 22 -39 69 -55 105 -16 36 -37 75 -46 87 -18 23 -48 96 -70 171 -7 23
-17 42 -21 42 -4 0 -10 19 -14 43 -4 23 -15 74 -25 112 -11 39 -24 136 -31
217 -14 166 -2 364 31 498 10 41 21 92 24 113 4 20 10 37 15 37 4 0 13 19 20
43 16 56 151 324 174 344 9 9 17 22 17 29 0 7 11 26 25 42 14 17 25 33 25 36
0 4 11 19 25 34 14 15 25 34 25 44 0 16 -111 192 -134 213 -6 6 -23 28 -37 50
-14 22 -40 55 -58 74 -17 18 -31 38 -31 43 0 6 -10 8 -22 4 -13 -4 -40 -9 -61
-11 -21 -2 -43 -7 -49 -11 -26 -16 -193 -56 -292 -69 -195 -27 -459 -12 -636
34 -171 45 -359 125 -461 197 -56 39 -118 46 -159 17 -31 -23 -150 -94 -221
-132 -105 -55 -253 -109 -374 -137 -104 -23 -142 -27 -285 -26 -142 0 -181 3
-281 26 -126 28 -264 80 -374 139 -76 40 -79 42 -176 104 -77 50 -129 56 -172
23z m164 -176 c162 -109 397 -203 603 -241 121 -23 359 -23 482 0 173 31 454
136 551 205 16 11 44 29 64 40 20 11 45 26 56 32 16 11 27 7 74 -23 163 -104
298 -155 534 -204 130 -26 156 -28 360 -27 210 1 227 2 365 33 80 18 156 35
171 38 22 4 33 -6 96 -92 l71 -97 -67 -107 c-171 -271 -242 -476 -278 -800
-14 -124 -15 -165 -4 -282 22 -254 80 -468 186 -694 84 -178 233 -404 358
-543 21 -24 37 -47 35 -51 -2 -5 -55 -64 -118 -131 l-115 -122 3 -211 c5 -320
-27 -546 -114 -799 -193 -562 -636 -972 -1279 -1183 -224 -74 -553 -131 -772
-135 -12 0 -44 -19 -71 -43 -98 -86 -334 -282 -342 -285 -5 -2 -98 71 -205
161 l-197 165 -111 7 c-289 18 -641 100 -912 213 -512 214 -875 596 -1050
1102 -41 118 -47 143 -80 325 -33 178 -49 393 -41 549 l7 128 -47 52 c-26 28
-81 86 -122 128 -76 80 -78 85 -41 118 17 15 143 177 180 231 170 246 309 558
350 784 38 211 48 393 28 546 -21 166 -67 361 -96 404 -7 11 -13 27 -13 35 0
25 -118 258 -176 348 -30 45 -54 85 -54 89 0 3 32 48 72 100 82 108 59 102
223 59 147 -38 264 -49 464 -43 219 6 406 42 576 109 110 44 264 124 295 154
8 8 15 14 16 14 0 0 39 -25 85 -56z m1394 -7058 l70 -64 -38 -7 c-54 -10 -162
-1 -222 20 -55 19 -177 86 -170 94 5 5 155 17 240 19 49 2 53 0 120 -62z m3
-418 c-29 -35 -43 -44 -74 -46 -26 -2 -36 0 -29 7 9 9 124 78 134 80 2 1 -12
-18 -31 -41z"/>
<path d="M4505 10359 c-139 -66 -187 -85 -290 -113 -55 -14 -113 -30 -130 -35
-16 -6 -100 -17 -185 -27 -165 -18 -379 -16 -552 6 -48 6 -98 10 -111 8 -24
-3 -24 -3 22 -88 26 -47 59 -116 75 -155 15 -38 35 -84 42 -102 8 -17 14 -36
14 -42 0 -6 4 -19 10 -29 11 -21 49 -174 61 -251 25 -155 28 -196 28 -316 0
-71 -4 -155 -9 -185 -5 -30 -13 -84 -18 -120 -15 -96 -50 -244 -82 -340 -41
-121 -70 -202 -81 -222 -9 -17 94 -18 2206 -18 1218 0 2215 2 2215 5 0 6 -48
130 -66 172 -8 17 -14 36 -14 42 0 6 -4 19 -9 29 -10 17 -45 151 -78 297 -25
114 -25 555 1 660 9 39 21 90 27 115 29 133 87 286 166 438 l54 104 -143 -9
c-391 -23 -688 2 -916 76 -60 19 -248 108 -283 132 -12 9 -41 -1 -145 -53
-197 -99 -395 -165 -569 -190 -100 -14 -385 -15 -485 -1 -193 27 -471 127
-645 233 l-30 18 -80 -39z m2062 -64 l103 -50 -3 -940 -2 -940 -105 0 -105 0
-3 993 c-1 547 1 992 5 990 5 -2 54 -26 110 -53z m-1576 -121 c166 -51 288
-74 391 -74 51 0 99 -4 106 -8 9 -7 12 -62 10 -243 l-3 -234 -342 -3 -343 -2
0 308 c0 170 3 311 6 315 4 3 21 -1 38 -10 17 -9 79 -31 137 -49z m1209 -874
l0 -941 -107 3 -108 3 -3 901 -2 900 52 14 c28 7 75 23 102 36 28 12 54 23 59
23 4 1 7 -422 7 -939z m-2050 600 l0 -290 -334 0 -334 0 -6 35 c-18 93 -98
309 -162 439 -19 38 -33 71 -30 73 2 2 48 0 102 -6 264 -27 466 -21 654 19 47
9 91 18 98 19 9 1 12 -63 12 -289z m2930 251 l55 -6 0 -890 0 -890 -104 0
-104 0 1 895 c0 492 1 899 1 904 1 4 22 5 49 1 26 -4 72 -10 102 -14z m650 -6
c0 -3 -20 -45 -44 -93 -47 -94 -131 -331 -147 -415 -32 -168 -48 -313 -49
-427 0 -107 27 -340 54 -464 18 -79 91 -308 112 -349 20 -37 14 -38 -137 -35
l-124 3 0 885 0 885 125 5 c69 3 144 7 168 8 23 1 42 0 42 -3z m-1992 -912
l-3 -868 -100 0 -100 0 -3 855 c-1 470 0 861 3 868 3 8 34 12 105 12 l100 0
-2 -867z m-1590 -575 l-3 -293 -397 -3 c-246 -1 -398 1 -398 7 0 5 13 45 29
88 54 146 111 356 111 410 0 17 4 43 10 57 l10 26 320 0 320 0 -2 -292z m1347
-3 l0 -290 -340 0 -340 0 -3 280 c-1 154 0 285 3 292 3 11 76 13 342 11 l338
-3 0 -290z"/>
<path d="M5395 8241 c-130 -36 -188 -118 -202 -290 -9 -112 36 -229 109 -284
104 -79 239 -76 326 6 29 28 62 76 62 91 0 2 -25 18 -55 35 l-56 32 -25 -30
c-32 -39 -81 -55 -120 -41 -70 27 -104 88 -103 185 0 71 19 116 58 142 50 34
107 31 154 -8 l38 -31 54 26 c30 14 55 32 55 39 0 21 -68 84 -114 106 -47 23
-137 34 -181 22z"/>
<path d="M4510 7935 l0 -305 65 0 65 0 0 125 0 125 90 0 90 0 0 65 0 65 -90 0
-90 0 0 45 0 44 153 3 152 3 3 68 3 67 -221 0 -220 0 0 -305z"/>
<path d="M6002 7933 l3 -308 158 -3 c190 -3 227 5 283 62 71 71 80 157 24 235
l-28 38 25 51 c19 39 24 60 19 86 -10 51 -46 98 -96 124 -41 20 -58 22 -217
22 l-173 0 2 -307z m319 167 c23 -13 25 -43 3 -65 -13 -12 -33 -15 -98 -13
l-81 3 -3 43 -3 42 81 0 c45 0 90 -5 101 -10z m2 -221 c28 -15 37 -28 37 -58
0 -49 -25 -61 -122 -61 l-88 0 0 65 0 65 76 0 c41 0 85 -5 97 -11z"/>
<path d="M3152 7523 c-4 -10 -7 -146 -7 -303 0 -318 10 -390 82 -610 165 -497
574 -873 1143 -1048 36 -11 88 -27 115 -35 49 -15 223 -52 375 -79 106 -18
1201 -19 1310 0 138 24 335 63 360 72 14 4 68 21 120 36 52 15 100 31 105 35
6 4 46 22 90 39 276 109 526 298 707 532 80 103 94 126 162 264 64 130 117
286 147 439 19 92 23 153 27 371 3 183 1 268 -7 283 l-12 21 -2355 0 c-2233 0
-2355 -1 -2362 -17z m2298 -410 c-1 -5 -7 -19 -15 -33 -23 -40 -18 -104 11
-162 23 -45 25 -55 13 -72 -35 -57 -69 -138 -69 -166 0 -41 29 -96 76 -143
l38 -37 -40 -58 c-80 -116 -184 -121 -278 -11 -92 107 -101 273 -29 531 15 56
16 57 87 91 39 20 87 38 106 42 19 4 42 11 50 16 19 11 50 12 50 2z m219 -9
c208 -59 366 -202 431 -387 16 -45 40 -153 40 -180 0 -5 -19 17 -43 49 -69 94
-194 204 -283 250 -84 44 -188 67 -273 62 -43 -3 -44 -2 -67 42 -34 65 -31 82
23 173 8 13 114 8 172 -9z m-570 -235 c-28 -124 -30 -274 -5 -347 10 -29 34
-74 53 -99 l35 -45 -39 -40 c-47 -48 -91 -68 -153 -68 l-47 0 -18 73 c-22 87
-23 227 -2 313 21 88 74 187 136 255 29 33 55 58 57 56 2 -2 -6 -46 -17 -98z
m636 -33 c122 -51 202 -113 307 -238 76 -92 100 -135 93 -171 -15 -79 -40
-167 -47 -167 -4 0 -8 4 -8 8 0 4 -16 25 -36 46 -47 50 -112 78 -170 75 -45
-3 -46 -3 -70 46 -41 79 -62 102 -110 121 -47 18 -60 17 -170 -12 -16 -4 -29
4 -55 37 -30 39 -34 50 -34 104 1 47 6 69 27 101 49 76 52 77 147 71 48 -3
104 -12 126 -21z m-60 -306 c36 -1 114 -114 115 -165 0 -65 -125 -196 -235
-245 -27 -12 -63 -28 -80 -36 -44 -20 -189 -51 -274 -59 l-73 -7 -54 58 c-46
49 -104 131 -104 147 0 3 21 8 47 12 64 9 112 35 155 83 l36 40 48 -24 c26
-13 58 -24 71 -24 62 0 146 68 189 152 13 26 25 48 27 48 1 0 20 7 42 15 22 8
49 13 60 10 11 -3 25 -5 30 -5z m302 -206 c25 -15 53 -43 69 -69 l26 -45 -46
-63 c-134 -189 -367 -290 -589 -257 -45 7 -98 19 -117 27 -82 34 -120 53 -120
60 0 5 41 16 91 26 96 18 173 40 224 62 17 8 41 19 55 24 87 38 183 124 230
207 17 29 38 55 48 57 30 9 86 -4 129 -29z"/>
<path d="M2975 5041 c-165 -27 -334 -121 -438 -243 -36 -42 -73 -65 -264 -164
l-223 -116 -44 -136 c-150 -462 -845 -2656 -843 -2659 10 -9 784 -250 788
-245 8 8 409 1256 409 1272 0 6 6 13 14 16 14 6 483 -141 499 -155 4 -4 -85
-299 -198 -656 -113 -357 -204 -649 -202 -650 1 -2 179 -59 395 -128 252 -80
395 -121 397 -113 17 49 827 2587 870 2727 l17 55 -208 407 c-195 383 -210
407 -241 418 -18 6 -33 14 -33 18 0 20 -108 147 -165 194 -148 122 -360 185
-530 158z m71 -1042 c93 -29 103 -34 118 -66 9 -18 16 -35 16 -37 0 -2 -20 -9
-44 -15 -102 -26 -230 -5 -310 49 l-35 24 67 38 c37 21 71 38 77 38 5 0 55
-14 111 -31z"/>
<path d="M7910 4860 c-248 -99 -374 -154 -372 -162 3 -10 648 -1666 1212
-3111 42 -108 79 -199 82 -202 6 -6 748 282 762 295 16 15 -1271 3323 -1294
3327 -8 2 -184 -65 -390 -147z"/>
</g>
</svg>
